<svg width="158" height="26" fill="none" xmlns="http://www.w3.org/2000/svg"><path d="M50.399 18h-1.287l-2.119-7.8h-.026L44.822 18h-1.287l-2.379-9.282h1.261l1.82 7.722h.026l2.08-7.722h1.339l2.054 7.722h.026l1.885-7.722h1.235L50.399 18Zm4.56-9.282h6.41v1.04h-5.175v2.951h4.823v1.04h-4.823v3.211h5.213V18H54.96V8.718Zm10.092 3.991h2.47c.702 0 1.205-.121 1.508-.364.312-.251.468-.624.468-1.118 0-.33-.052-.59-.156-.78a1.109 1.109 0 0 0-.429-.442 1.617 1.617 0 0 0-.637-.195 5.151 5.151 0 0 0-.754-.052h-2.47v2.951Zm-1.235-3.991h3.367c.2 0 .412.004.637.013.234 0 .464.013.69.039.225.017.433.048.623.091.2.043.369.108.507.195.304.182.56.433.767.754.217.32.325.715.325 1.183 0 .494-.12.923-.364 1.287-.234.355-.572.62-1.014.793v.026c.572.121 1.01.381 1.313.78.304.399.455.884.455 1.456 0 .338-.06.667-.182.988-.12.32-.303.607-.546.858a2.738 2.738 0 0 1-.884.598c-.346.147-.75.221-1.209.221h-4.485V8.718Zm1.235 8.242h3.094c.546 0 .971-.147 1.274-.442.312-.295.468-.702.468-1.222 0-.303-.056-.555-.169-.754a1.242 1.242 0 0 0-.455-.468 1.66 1.66 0 0 0-.637-.247 3.589 3.589 0 0 0-.754-.078h-2.82v3.211Zm8.575-8.242h4.368c.884 0 1.573.217 2.067.65.502.433.754 1.027.754 1.781 0 .563-.13 1.057-.39 1.482-.251.425-.659.715-1.222.871v.026c.269.052.485.139.65.26.173.121.308.269.403.442.104.165.177.351.22.559.053.208.092.425.118.65.017.225.03.455.039.689.008.234.03.464.065.689.035.225.082.442.143.65.07.2.169.377.299.533h-1.378a.819.819 0 0 1-.182-.39 4.885 4.885 0 0 1-.052-.546 72.656 72.656 0 0 1-.026-.663 4.514 4.514 0 0 0-.078-.689 6.333 6.333 0 0 0-.13-.637 1.44 1.44 0 0 0-.247-.533 1.138 1.138 0 0 0-.442-.364c-.182-.095-.425-.143-.728-.143H74.86V18h-1.235V8.718Zm3.809 4.277c.286 0 .559-.022.819-.065.26-.043.485-.126.676-.247.2-.13.355-.299.468-.507.121-.217.182-.494.182-.832 0-.468-.13-.85-.39-1.144-.26-.295-.68-.442-1.261-.442H74.86v3.237h2.574Zm6-4.277h6.41v1.04H84.67v2.951h4.823v1.04H84.67v3.211h5.213V18h-6.448V8.718Zm14.227 2.717c-.07-.667-.313-1.148-.729-1.443-.407-.303-.931-.455-1.573-.455-.26 0-.515.026-.766.078a2.112 2.112 0 0 0-.676.26 1.427 1.427 0 0 0-.469.494c-.112.2-.168.45-.168.754 0 .286.082.52.246.702.174.173.4.316.677.429.286.113.606.208.962.286.355.07.715.147 1.079.234.372.087.736.19 1.091.312.356.113.672.269.95.468.285.2.51.45.675.754.174.303.26.685.26 1.144 0 .494-.112.919-.338 1.274a2.752 2.752 0 0 1-.844.858 3.679 3.679 0 0 1-1.17.468 5.513 5.513 0 0 1-2.756-.039 3.802 3.802 0 0 1-1.222-.585 2.975 2.975 0 0 1-.833-1.014c-.199-.416-.299-.906-.299-1.469h1.17c0 .39.074.728.221 1.014.156.277.356.507.599.689.25.182.541.316.87.403.33.087.668.13 1.014.13.278 0 .555-.026.833-.078.285-.052.541-.139.767-.26a1.57 1.57 0 0 0 .545-.52c.14-.217.209-.494.209-.832 0-.32-.087-.58-.26-.78-.165-.2-.39-.36-.677-.481a4.515 4.515 0 0 0-.948-.312c-.356-.078-.72-.156-1.093-.234a21.92 21.92 0 0 1-1.079-.286 4.438 4.438 0 0 1-.962-.429 2.23 2.23 0 0 1-.675-.689c-.165-.286-.248-.641-.248-1.066 0-.468.096-.871.287-1.209a2.44 2.44 0 0 1 .754-.845c.32-.225.68-.39 1.079-.494a4.66 4.66 0 0 1 1.247-.169c.477 0 .92.056 1.326.169.408.113.763.29 1.067.533.311.243.554.55.727.923.183.364.282.802.3 1.313h-1.17Zm7.588-2.717h7.514v1.404h-2.951V18h-1.625v-7.878h-2.938V8.718Zm9.5 0h4.433c1.023 0 1.79.221 2.301.663.512.442.767 1.057.767 1.846 0 .442-.065.81-.195 1.105-.13.286-.281.52-.455.702a1.776 1.776 0 0 1-.52.377c-.164.078-.286.13-.364.156v.026c.139.017.286.06.442.13.165.07.317.182.455.338.139.147.252.342.338.585.096.243.143.546.143.91a8.8 8.8 0 0 0 .117 1.495c.087.442.217.758.39.949h-1.742c-.121-.2-.195-.42-.221-.663a10.064 10.064 0 0 1-.026-.702 6.57 6.57 0 0 0-.078-1.092c-.052-.312-.147-.568-.286-.767a1.188 1.188 0 0 0-.572-.455c-.234-.095-.537-.143-.91-.143h-2.392V18h-1.625V8.718Zm1.625 4.225h2.665c.52 0 .915-.121 1.183-.364.269-.251.403-.624.403-1.118 0-.295-.043-.533-.13-.715a1.02 1.02 0 0 0-.364-.442 1.259 1.259 0 0 0-.52-.208 3.33 3.33 0 0 0-.598-.052h-2.639v2.899Zm10.922-4.225h1.729L132.601 18h-1.742l-.871-2.457h-3.705L125.412 18h-1.677l3.562-9.282Zm-.572 5.59h2.834l-1.391-3.991h-.039l-1.404 3.991Zm5.817-5.59h1.69l2.327 7.345h.026l2.379-7.345h1.651L137.443 18h-1.807l-3.094-9.282Zm9.91 0h6.682v1.404h-5.057v2.431h4.68v1.326h-4.68v2.717h5.148V18h-6.773V8.718Zm9.099 0h1.625v7.878h4.719V18h-6.344V8.718Z" fill="#000"/><path d="m10.334 22.24.033-2.772.376-.033c.214-.01.934.15 1.665.387l1.289.408.032.451c.032.43-.064.613-1.182 2.385L11.334 25h-1.021l.021-2.76Zm4.866-2.558a392.095 392.095 0 0 1-4.242-1.31l-.591-.194-.033-.483-.021-.483 2.277-2.697c1.257-1.482 2.364-2.782 2.45-2.89.086-.118-.849.666-2.095 1.73-4.995 4.265-4.523 3.91-5.05 3.91-.407 0-2.781-.709-7.068-2.105L0 14.88v-.923l11.623-5.941c9.884-5.06 11.7-5.952 12.14-5.984L24.278 2v.537c0 .322-.816 3.91-2.094 9.217-1.16 4.77-2.128 8.766-2.16 8.874-.118.397-.999.225-4.823-.946Z" fill="#343434"/></svg>