<svg width="158" height="26" viewBox="0 0 158 26" fill="none" xmlns="http://www.w3.org/2000/svg">
<path d="M50.399 18H49.112L46.993 10.2H46.967L44.822 18H43.535L41.156 8.718H42.417L44.237 16.44H44.263L46.343 8.718H47.682L49.736 16.44H49.762L51.647 8.718H52.882L50.399 18ZM54.9592 8.718H61.3682V9.758H56.1942V12.709H61.0172V13.749H56.1942V16.96H61.4072V18H54.9592V8.718ZM65.0514 12.709H67.5214C68.2234 12.709 68.7261 12.5877 69.0294 12.345C69.3414 12.0937 69.4974 11.721 69.4974 11.227C69.4974 10.8977 69.4454 10.6377 69.3414 10.447C69.2374 10.2563 69.0944 10.109 68.9124 10.005C68.7304 9.901 68.5181 9.836 68.2754 9.81C68.0414 9.77533 67.7901 9.758 67.5214 9.758H65.0514V12.709ZM63.8164 8.718H67.1834C67.3828 8.718 67.5951 8.72233 67.8204 8.731C68.0544 8.731 68.2841 8.744 68.5094 8.77C68.7348 8.78733 68.9428 8.81767 69.1334 8.861C69.3328 8.90433 69.5018 8.96933 69.6404 9.056C69.9438 9.238 70.1994 9.48933 70.4074 9.81C70.6241 10.1307 70.7324 10.525 70.7324 10.993C70.7324 11.487 70.6111 11.916 70.3684 12.28C70.1344 12.6353 69.7964 12.8997 69.3544 13.073V13.099C69.9264 13.2203 70.3641 13.4803 70.6674 13.879C70.9708 14.2777 71.1224 14.763 71.1224 15.335C71.1224 15.673 71.0618 16.0023 70.9404 16.323C70.8191 16.6437 70.6371 16.9297 70.3944 17.181C70.1604 17.4237 69.8658 17.623 69.5104 17.779C69.1638 17.9263 68.7608 18 68.3014 18H63.8164V8.718ZM65.0514 16.96H68.1454C68.6914 16.96 69.1161 16.8127 69.4194 16.518C69.7314 16.2233 69.8874 15.816 69.8874 15.296C69.8874 14.9927 69.8311 14.7413 69.7184 14.542C69.6058 14.3427 69.4541 14.1867 69.2634 14.074C69.0814 13.9527 68.8691 13.8703 68.6264 13.827C68.3838 13.775 68.1324 13.749 67.8724 13.749H65.0514V16.96ZM73.6258 8.718H77.9938C78.8778 8.718 79.5668 8.93467 80.0608 9.368C80.5635 9.80133 80.8148 10.395 80.8148 11.149C80.8148 11.7123 80.6848 12.2063 80.4248 12.631C80.1735 13.0557 79.7662 13.346 79.2028 13.502V13.528C79.4715 13.58 79.6882 13.6667 79.8528 13.788C80.0262 13.9093 80.1605 14.0567 80.2558 14.23C80.3598 14.3947 80.4335 14.581 80.4768 14.789C80.5288 14.997 80.5678 15.2137 80.5938 15.439C80.6112 15.6643 80.6242 15.894 80.6328 16.128C80.6415 16.362 80.6632 16.5917 80.6978 16.817C80.7325 17.0423 80.7802 17.259 80.8408 17.467C80.9102 17.6663 81.0098 17.844 81.1398 18H79.7618C79.6752 17.9047 79.6145 17.7747 79.5798 17.61C79.5538 17.4453 79.5365 17.2633 79.5278 17.064C79.5192 16.856 79.5105 16.635 79.5018 16.401C79.4932 16.167 79.4672 15.9373 79.4238 15.712C79.3892 15.4867 79.3458 15.2743 79.2938 15.075C79.2418 14.867 79.1595 14.6893 79.0468 14.542C78.9342 14.386 78.7868 14.2647 78.6048 14.178C78.4228 14.0827 78.1802 14.035 77.8768 14.035H74.8608V18H73.6258V8.718ZM77.4348 12.995C77.7208 12.995 77.9938 12.9733 78.2538 12.93C78.5138 12.8867 78.7392 12.8043 78.9298 12.683C79.1292 12.553 79.2852 12.384 79.3978 12.176C79.5192 11.9593 79.5798 11.682 79.5798 11.344C79.5798 10.876 79.4498 10.4947 79.1898 10.2C78.9298 9.90533 78.5095 9.758 77.9288 9.758H74.8608V12.995H77.4348ZM83.4352 8.718H89.8442V9.758H84.6702V12.709H89.4932V13.749H84.6702V16.96H89.8832V18H83.4352V8.718ZM97.6615 11.435C97.5922 10.7677 97.3495 10.2867 96.9335 9.992C96.5262 9.68867 96.0018 9.537 95.3605 9.537C95.1005 9.537 94.8448 9.563 94.5935 9.615C94.3422 9.667 94.1168 9.75367 93.9175 9.875C93.7268 9.99633 93.5708 10.161 93.4495 10.369C93.3368 10.5683 93.2805 10.8197 93.2805 11.123C93.2805 11.409 93.3628 11.643 93.5275 11.825C93.7008 11.9983 93.9262 12.1413 94.2035 12.254C94.4895 12.3667 94.8102 12.462 95.1655 12.54C95.5208 12.6093 95.8805 12.6873 96.2445 12.774C96.6172 12.8607 96.9812 12.9647 97.3365 13.086C97.6918 13.1987 98.0082 13.3547 98.2855 13.554C98.5715 13.7533 98.7968 14.0047 98.9615 14.308C99.1348 14.6113 99.2215 14.9927 99.2215 15.452C99.2215 15.946 99.1088 16.3707 98.8835 16.726C98.6668 17.0727 98.3852 17.3587 98.0385 17.584C97.6918 17.8007 97.3018 17.9567 96.8685 18.052C96.4438 18.156 96.0192 18.208 95.5945 18.208C95.0745 18.208 94.5805 18.143 94.1125 18.013C93.6532 17.883 93.2458 17.688 92.8905 17.428C92.5438 17.1593 92.2665 16.8213 92.0585 16.414C91.8592 15.998 91.7595 15.5083 91.7595 14.945H92.9295C92.9295 15.335 93.0032 15.673 93.1505 15.959C93.3065 16.2363 93.5058 16.466 93.7485 16.648C93.9998 16.83 94.2902 16.9643 94.6195 17.051C94.9488 17.1377 95.2868 17.181 95.6335 17.181C95.9108 17.181 96.1882 17.155 96.4655 17.103C96.7515 17.051 97.0072 16.9643 97.2325 16.843C97.4578 16.713 97.6398 16.5397 97.7785 16.323C97.9172 16.1063 97.9865 15.829 97.9865 15.491C97.9865 15.1703 97.8998 14.9103 97.7265 14.711C97.5618 14.5117 97.3365 14.3513 97.0505 14.23C96.7732 14.1 96.4568 13.996 96.1015 13.918C95.7462 13.84 95.3822 13.762 95.0095 13.684C94.6455 13.5973 94.2858 13.502 93.9305 13.398C93.5752 13.2853 93.2545 13.1423 92.9685 12.969C92.6912 12.787 92.4658 12.5573 92.2925 12.28C92.1278 11.994 92.0455 11.6387 92.0455 11.214C92.0455 10.746 92.1408 10.343 92.3315 10.005C92.5222 9.65833 92.7735 9.37667 93.0855 9.16C93.4062 8.93467 93.7658 8.77 94.1645 8.666C94.5718 8.55333 94.9878 8.497 95.4125 8.497C95.8892 8.497 96.3312 8.55333 96.7385 8.666C97.1458 8.77867 97.5012 8.95633 97.8045 9.199C98.1165 9.44167 98.3592 9.74933 98.5325 10.122C98.7145 10.486 98.8142 10.9237 98.8315 11.435H97.6615ZM105.25 8.718H112.764V10.122H109.813V18H108.188V10.122H105.25V8.718ZM114.75 8.718H119.183C120.206 8.718 120.973 8.939 121.484 9.381C121.996 9.823 122.251 10.4383 122.251 11.227C122.251 11.669 122.186 12.0373 122.056 12.332C121.926 12.618 121.775 12.852 121.601 13.034C121.428 13.2073 121.255 13.333 121.081 13.411C120.917 13.489 120.795 13.541 120.717 13.567V13.593C120.856 13.6103 121.003 13.6537 121.159 13.723C121.324 13.7923 121.476 13.905 121.614 14.061C121.753 14.2083 121.866 14.4033 121.952 14.646C122.048 14.8887 122.095 15.192 122.095 15.556C122.095 16.102 122.134 16.6003 122.212 17.051C122.299 17.493 122.429 17.8093 122.602 18H120.86C120.739 17.8007 120.665 17.5797 120.639 17.337C120.622 17.0943 120.613 16.8603 120.613 16.635C120.613 16.2103 120.587 15.8463 120.535 15.543C120.483 15.231 120.388 14.9753 120.249 14.776C120.111 14.568 119.92 14.4163 119.677 14.321C119.443 14.2257 119.14 14.178 118.767 14.178H116.375V18H114.75V8.718ZM116.375 12.943H119.04C119.56 12.943 119.955 12.8217 120.223 12.579C120.492 12.3277 120.626 11.955 120.626 11.461C120.626 11.1663 120.583 10.928 120.496 10.746C120.41 10.5553 120.288 10.408 120.132 10.304C119.985 10.2 119.812 10.1307 119.612 10.096C119.422 10.0613 119.222 10.044 119.014 10.044H116.375V12.943ZM127.297 8.718H129.026L132.601 18H130.859L129.988 15.543H126.283L125.412 18H123.735L127.297 8.718ZM126.725 14.308H129.559L128.168 10.317H128.129L126.725 14.308ZM132.542 8.718H134.232L136.559 16.063H136.585L138.964 8.718H140.615L137.443 18H135.636L132.542 8.718ZM142.452 8.718H149.134V10.122H144.077V12.553H148.757V13.879H144.077V16.596H149.225V18H142.452V8.718ZM151.551 8.718H153.176V16.596H157.895V18H151.551V8.718Z" fill="black"/>
<path d="M10.3344 22.2392L10.3666 19.4675L10.7426 19.4353C10.9575 19.4246 11.6772 19.5857 12.4077 19.8221L13.6969 20.2303L13.7291 20.6815C13.7613 21.1112 13.6646 21.2938 12.5474 23.0663L11.3335 25H10.8178H10.3129L10.3344 22.2392Z" fill="#343434"/>
<path d="M15.2008 19.6824C13.192 19.0701 11.2798 18.4792 10.9575 18.3718L10.3667 18.1784L10.3344 17.695L10.3129 17.2116L12.5904 14.5152C13.8473 13.0327 14.9538 11.7328 15.0397 11.6254C15.1256 11.5072 14.191 12.2915 12.9449 13.355C7.94956 17.6198 8.42223 17.2653 7.89584 17.2653C7.48762 17.2653 5.1135 16.5563 0.827184 15.1597L0 14.8804V14.4185V13.9566L11.6235 8.01588C21.5068 2.9561 23.3223 2.06446 23.7627 2.03223L24.2784 2V2.53713C24.2784 2.85941 23.4619 6.44745 22.1836 11.7543C21.0234 16.5241 20.0565 20.5203 20.0243 20.6277C19.9061 21.0252 19.0252 20.8533 15.2008 19.6824Z" fill="#343434"/>
</svg>
